<?xml version="1.0" encoding="UTF-8" standalone="no"?>
<!-- Created with Inkscape (http://www.inkscape.org/) -->
<svg
   xmlns:svg="http://www.w3.org/2000/svg"
   xmlns="http://www.w3.org/2000/svg"
   version="1.0"
   width="744.09448"
   height="1052.3622"
   id="svg3810">
  <defs
     id="defs3812">
    <linearGradient
       x1="131.86011"
       y1="594.94531"
       x2="131.86011"
       y2="530.94531"
       id="SVGID_15_"
       gradientUnits="userSpaceOnUse"
       gradientTransform="matrix(1,0,0,-1,0.1401,999.9453)">
		<stop
   id="stop82"
   style="stop-color:#ffffff;stop-opacity:1"
   offset="0" />

		<stop
   id="stop84"
   style="stop-color:#fbfbfb;stop-opacity:1"
   offset="0.1408" />

		<stop
   id="stop86"
   style="stop-color:#eeeeee;stop-opacity:1"
   offset="0.2913" />

		<stop
   id="stop88"
   style="stop-color:#d8d8d8;stop-opacity:1"
   offset="0.4461" />

		<stop
   id="stop90"
   style="stop-color:#bbbbbb;stop-opacity:1"
   offset="0.60409999" />

		<stop
   id="stop92"
   style="stop-color:#949494;stop-opacity:1"
   offset="0.76440001" />

		<stop
   id="stop94"
   style="stop-color:#666666;stop-opacity:1"
   offset="0.92439997" />

		<stop
   id="stop96"
   style="stop-color:#4d4d4d;stop-opacity:1"
   offset="1" />

	</linearGradient>
  </defs>
  <g
     id="layer1">
    <g
       id="Toggle-off">
	
		<linearGradient
   x1="131.86011"
   y1="594.94531"
   x2="131.86011"
   y2="530.94531"
   id="linearGradient3830"
   gradientUnits="userSpaceOnUse"
   gradientTransform="matrix(1,0,0,-1,0.1401,999.9453)">
		<stop
   id="stop3832"
   style="stop-color:#ffffff;stop-opacity:1"
   offset="0" />

		<stop
   id="stop3834"
   style="stop-color:#fbfbfb;stop-opacity:1"
   offset="0.1408" />

		<stop
   id="stop3836"
   style="stop-color:#eeeeee;stop-opacity:1"
   offset="0.2913" />

		<stop
   id="stop3838"
   style="stop-color:#d8d8d8;stop-opacity:1"
   offset="0.4461" />

		<stop
   id="stop3840"
   style="stop-color:#bbbbbb;stop-opacity:1"
   offset="0.60409999" />

		<stop
   id="stop3842"
   style="stop-color:#949494;stop-opacity:1"
   offset="0.76440001" />

		<stop
   id="stop3844"
   style="stop-color:#666666;stop-opacity:1"
   offset="0.92439997" />

		<stop
   id="stop3846"
   style="stop-color:#4d4d4d;stop-opacity:1"
   offset="1" />

	</linearGradient>

	<path
   d="M 164,465 C 164,467.2 162.2,469 160,469 L 104,469 C 101.8,469 100,467.2 100,465 L 100,409 C 100,406.8 101.8,405 104,405 L 160,405 C 162.2,405 164,406.8 164,409 L 164,465 z"
   id="path98"
   style="opacity:0.2;fill:url(#SVGID_15_)" />

	<path
   d="M 137.654,442.645 C 134.518,445.768 129.456,445.768 126.338,442.645 C 123.221,439.532 123.221,434.474 126.338,431.334 C 129.457,428.236 134.539,428.236 137.654,431.353 C 140.77,434.472 140.793,439.532 137.654,442.645 z"
   id="path100"
   style="opacity:0.8;fill:#ffffff" />

</g>
    <g
       id="Toggle-on">
	<path
   d="M 164,360 C 164,362.2 162.2,364 160,364 L 104,364 C 101.8,364 100,362.2 100,360 L 100,304 C 100,301.8 101.8,300 104,300 L 160,300 C 162.2,300 164,301.8 164,304 L 164,360 z"
   id="path103"
   style="fill:#ffa000" />

	<path
   d="M 160,300 L 104,300 C 101.8,300 100,301.8 100,304 L 100,360 C 100,362.2 101.8,364 104,364 L 160,364 C 162.2,364 164,362.2 164,360 L 164,304 C 164,301.8 162.2,300 160,300 z M 160.847,357.242 C 160.847,359.225 159.224,360.848 157.241,360.848 L 106.758,360.848 C 104.775,360.848 103.152,359.225 103.152,357.242 L 103.152,306.759 C 103.152,304.776 104.775,303.153 106.758,303.153 L 157.241,303.153 C 159.224,303.153 160.847,304.776 160.847,306.759 L 160.847,357.242 z"
   id="path105"
   style="fill:#d88000" />

	<path
   d="M 139.482,339.47 C 135.332,343.602 128.633,343.602 124.506,339.47 C 120.381,335.351 120.381,328.657 124.506,324.502 C 128.633,320.403 135.359,320.403 139.482,324.527 C 143.606,328.655 143.636,335.351 139.482,339.47 z"
   id="path107"
   style="fill:#d88000" />

	<path
   d="M 137.654,337.645 C 134.518,340.768 129.456,340.768 126.338,337.645 C 123.221,334.532 123.221,329.474 126.338,326.334 C 129.457,323.236 134.539,323.236 137.654,326.353 C 140.77,329.472 140.793,334.532 137.654,337.645 z"
   id="path109"
   style="opacity:0.7" />

</g>
    <path
       d="M 160,510.719 C 161.654,510.719 163,512.065 163,513.719 L 163,569.719 C 163,571.373 161.654,572.719 160,572.719 L 104,572.719 C 102.346,572.719 101,571.373 101,569.719 L 101,513.719 C 101,512.065 102.346,510.719 104,510.719 L 160,510.719 M 160,509.719 L 104,509.719 C 101.8,509.719 100,511.519 100,513.719 L 100,569.719 C 100,571.919 101.8,573.719 104,573.719 L 160,573.719 C 162.2,573.719 164,571.919 164,569.719 L 164,513.719 C 164,511.519 162.2,509.719 160,509.719 L 160,509.719 z"
       id="Thumbnail-frame"
       style="fill:#4d4d4d" />
    <g
       id="See-more-indicator-small">
	<rect
   width="16"
   height="16"
   x="124.691"
   y="239.10699"
   id="rect1299"
   style="fill:none" />

	<polygon
   points="131.495,247.105 128.093,249.785 124.691,252.465 124.691,247.105 124.691,241.749 131.495,247.105 "
   id="arrow"
   style="fill:#f2f2f2" />

</g>
    <g
       id="See-more-indicator-big">
	<rect
   width="31.999001"
   height="32"
   x="115"
   y="176.09801"
   id="rect1303"
   style="fill:none" />

	<polygon
   points="138.123,191.443 130.728,201.888 125.26,201.888 132.656,191.443 125.26,181.318 130.728,181.318 138.123,191.443 "
   id="polygon1305"
   style="fill:#ffffff" />

</g>
    <g
       id="Check-mark">
	<rect
   width="31.999001"
   height="32"
   x="113"
   y="610.09802"
   id="rect2706"
   style="fill:none" />

	<path
   d="M 120.304,625.174 L 127.199,631.992 C 127.199,631.992 136.691,619.836 141.687,615.949 C 139.8,618.725 127.678,636.828 127.678,636.828 L 117.687,627.791 L 120.304,625.174 z"
   id="path2708"
   style="fill:#ffa000;stroke:#ffa000" />

</g>
    <rect
       width="835.15802"
       height="1"
       x="62.676003"
       y="877.88904"
       id="Mashup-cont-header-line"
       style="fill:none;stroke:#ffa000" />
    <line
       id="Dialog-header-line"
       x1="44.11314"
       y1="988.87091"
       x2="882.11115"
       y2="988.87091"
       style="fill:none;stroke:#4d4d4d;stroke-width:2" />
  </g>
</svg>
